<svg width="32" height="32" viewBox="0 0 32 32" fill="none" xmlns="http://www.w3.org/2000/svg">
  <defs>
    <linearGradient id="logoGradient" x1="0%" y1="0%" x2="100%" y2="100%">
      <stop offset="0%" style="stop-color:#6366f1;stop-opacity:1" />
      <stop offset="50%" style="stop-color:#06b6d4;stop-opacity:1" />
      <stop offset="100%" style="stop-color:#f59e0b;stop-opacity:1" />
    </linearGradient>
    <filter id="glow">
      <feGaussianBlur stdDeviation="2" result="coloredBlur"/>
      <feMerge> 
        <feMergeNode in="coloredBlur"/>
        <feMergeNode in="SourceGraphic"/>
      </feMerge>
    </filter>
  </defs>
  
  <!-- Background circle -->
  <circle cx="16" cy="16" r="15" fill="url(#logoGradient)" opacity="0.1"/>
  
  <!-- Main chaos symbol -->
  <g transform="translate(16,16)" filter="url(#glow)">
    <!-- Central dot -->
    <circle cx="0" cy="0" r="2" fill="url(#logoGradient)"/>
    
    <!-- Radiating lines representing chaos -->
    <g stroke="url(#logoGradient)" stroke-width="2" stroke-linecap="round">
      <!-- Primary axes -->
      <line x1="-8" y1="0" x2="8" y2="0" opacity="0.8"/>
      <line x1="0" y1="-8" x2="0" y2="8" opacity="0.8"/>
      
      <!-- Diagonal lines -->
      <line x1="-6" y1="-6" x2="6" y2="6" opacity="0.6"/>
      <line x1="6" y1="-6" x2="-6" y2="6" opacity="0.6"/>
      
      <!-- Additional chaos lines -->
      <line x1="-8" y1="-3" x2="8" y2="3" opacity="0.4"/>
      <line x1="-8" y1="3" x2="8" y2="-3" opacity="0.4"/>
      <line x1="-3" y1="-8" x2="3" y2="8" opacity="0.4"/>
      <line x1="3" y1="-8" x2="-3" y2="8" opacity="0.4"/>
    </g>
    
    <!-- Orbit circles representing order emerging from chaos -->
    <g fill="none" stroke="url(#logoGradient)" stroke-width="1" opacity="0.3">
      <circle cx="0" cy="0" r="6"/>
      <circle cx="0" cy="0" r="10"/>
    </g>
    
    <!-- Small dots at line intersections -->
    <g fill="url(#logoGradient)" opacity="0.7">
      <circle cx="6" cy="0" r="1"/>
      <circle cx="-6" cy="0" r="1"/>
      <circle cx="0" cy="6" r="1"/>
      <circle cx="0" cy="-6" r="1"/>
      <circle cx="4" cy="4" r="0.8"/>
      <circle cx="-4" cy="-4" r="0.8"/>
      <circle cx="4" cy="-4" r="0.8"/>
      <circle cx="-4" cy="4" r="0.8"/>
    </g>
  </g>
</svg>
